<svg aria-hidden="true" style="position: absolute; width: 0; height: 0; overflow: hidden;" version="1.1" xmlns="http://www.w3.org/2000/svg" xmlns:xlink="http://www.w3.org/1999/xlink">
<defs>
<symbol id="icon-heart" viewBox="0 0 32 32">
  <path stroke-linejoin="round" stroke-linecap="round" stroke-miterlimit="4" stroke-width="2.6667" d="M27.787 6.147c-0.681-0.681-1.49-1.222-2.38-1.591s-1.844-0.559-2.807-0.559c-0.963 0-1.917 0.19-2.807 0.559s-1.698 0.909-2.379 1.591l-1.413 1.413-1.413-1.413c-1.376-1.376-3.241-2.148-5.187-2.148s-3.811 0.773-5.187 2.148c-1.376 1.376-2.148 3.241-2.148 5.187s0.773 3.811 2.148 5.187l11.787 11.787 11.787-11.787c0.681-0.681 1.222-1.49 1.591-2.38s0.558-1.844 0.558-2.807-0.19-1.917-0.558-2.807c-0.369-0.89-0.909-1.699-1.591-2.38z"></path>
</symbol>
<symbol id="icon-close" viewBox="0 0 24 24">
  <path d="M18 6L6 18" stroke="currentColor" stroke-width="1.8" stroke-linecap="round" stroke-linejoin="round"/>
  <path d="M6 6L18 18" stroke="currentColor" stroke-width="1.8" stroke-linecap="round" stroke-linejoin="round"/>
</symbol>
<symbol id="icon-light" viewBox="0 0 24 24">
<path fill="currentColor" d="M12,9c1.65,0,3,1.35,3,3s-1.35,3-3,3s-3-1.35-3-3S10.35,9,12,9 M12,7c-2.76,0-5,2.24-5,5s2.24,5,5,5s5-2.24,5-5 S14.76,7,12,7L12,7z M2,13l2,0c0.55,0,1-0.45,1-1s-0.45-1-1-1l-2,0c-0.55,0-1,0.45-1,1S1.45,13,2,13z M20,13l2,0c0.55,0,1-0.45,1-1 s-0.45-1-1-1l-2,0c-0.55,0-1,0.45-1,1S19.45,13,20,13z M11,2v2c0,0.55,0.45,1,1,1s1-0.45,1-1V2c0-0.55-0.45-1-1-1S11,1.45,11,2z M11,20v2c0,0.55,0.45,1,1,1s1-0.45,1-1v-2c0-0.55-0.45-1-1-1C11.45,19,11,19.45,11,20z M5.99,4.58c-0.39-0.39-1.03-0.39-1.41,0 c-0.39,0.39-0.39,1.03,0,1.41l1.06,1.06c0.39,0.39,1.03,0.39,1.41,0s0.39-1.03,0-1.41L5.99,4.58z M18.36,16.95 c-0.39-0.39-1.03-0.39-1.41,0c-0.39,0.39-0.39,1.03,0,1.41l1.06,1.06c0.39,0.39,1.03,0.39,1.41,0c0.39-0.39,0.39-1.03,0-1.41 L18.36,16.95z M19.42,5.99c0.39-0.39,0.39-1.03,0-1.41c-0.39-0.39-1.03-0.39-1.41,0l-1.06,1.06c-0.39,0.39-0.39,1.03,0,1.41 s1.03,0.39,1.41,0L19.42,5.99z M7.05,18.36c0.39-0.39,0.39-1.03,0-1.41c-0.39-0.39-1.03-0.39-1.41,0l-1.06,1.06 c-0.39,0.39-0.39,1.03,0,1.41s1.03,0.39,1.41,0L7.05,18.36z"></path>
</symbol>
<symbol id="icon-dark" viewBox="0 0 24 24">
<path fill="currentColor" d="M9.37,5.51C9.19,6.15,9.1,6.82,9.1,7.5c0,4.08,3.32,7.4,7.4,7.4c0.68,0,1.35-0.09,1.99-0.27C17.45,17.19,14.93,19,12,19 c-3.86,0-7-3.14-7-7C5,9.07,6.81,6.55,9.37,5.51z M12,3c-4.97,0-9,4.03-9,9s4.03,9,9,9s9-4.03,9-9c0-0.46-0.04-0.92-0.1-1.36 c-0.98,1.37-2.58,2.26-4.4,2.26c-2.98,0-5.4-2.42-5.4-5.4c0-1.81,0.89-3.42,2.26-4.4C12.92,3.04,12.46,3,12,3L12,3z"></path>
</symbol>
<symbol id="icon-guarantee" viewBox="0 0 1024 1024">
  <path d="M330.147 727.583l-3.105-2.113c-23.995-16.366-56.736-10.206-73.12 13.753L120.381 934.43c-16.389 23.958-10.22 56.646 13.779 73.002l3.1 2.118c24 16.366 56.741 10.206 73.125-13.752l133.542-195.207c16.388-23.959 10.219-56.642-13.78-73.008z" fill="#E5594F" /><path d="M457.934 727.583l-3.1-2.113c-23.999-16.366-56.74-10.206-73.129 13.753L248.168 934.43c-16.388 23.958-10.22 56.646 13.775 73.002l3.109 2.118c23.995 16.366 56.736 10.206 73.12-13.752l133.537-195.207c16.394-23.959 10.225-56.642-13.775-73.008z" fill="#F0D043" /><path d="M895.09 934.213L761.813 740.007c-16.353-23.837-49.03-29.961-72.979-13.689l-3.101 2.108c-23.949 16.28-30.104 48.796-13.748 72.629L805.26 995.261c16.357 23.838 49.031 29.971 72.98 13.686l3.101-2.1c23.95-16.282 30.105-48.797 13.749-72.634z" fill="#E5594F" /><path d="M767.555 934.213L634.279 740.007c-16.357-23.837-49.031-29.961-72.985-13.689l-3.096 2.108c-23.954 16.28-30.109 48.796-13.752 72.629l133.275 194.206c16.357 23.838 49.03 29.971 72.984 13.686l3.096-2.1c23.955-16.282 30.11-48.797 13.754-72.634z" fill="#F0D043" /><path d="M712.252 364.688L577.453 338.78l-66.275-120.278-66.28 120.278-134.794 25.908 93.834 100.25-17.037 136.291 124.277-58.327 124.272 58.327-17.037-136.291z" fill="#F39A2B" /><path d="M803.625 434.496c-1.459 160.596-131.855 290.993-292.452 292.453-76.346 0.693-150.076-30.799-204.647-83.529-56.995-55.073-87.084-130.821-87.796-208.923-0.676-74.35-116.033-74.415-115.355 0 2.034 223.497 184.3 405.775 407.798 407.807 223.519 2.032 405.803-187.375 407.808-407.807 0.675-74.416-114.679-74.351-115.356-0.001z" fill="#4A5699" /><path d="M218.73 415.399c1.462-160.594 131.845-290.992 292.443-292.455 76.347-0.696 150.079 30.801 204.647 83.531 56.997 55.075 87.093 130.822 87.805 208.923 0.677 74.35 116.031 74.416 115.355 0C916.948 191.905 734.669 9.624 511.173 7.589c-223.518-2.035-405.793 187.38-407.798 407.81-0.678 74.415 114.679 74.35 115.355 0z" fill="#C45FA0" />
</symbol>
<symbol id="icon-hidden" viewBox="0 0 1024 1024">
  <path d="M94.433 536.378c49.818-67.226 110.761-124.854 180.172-166.808 35.333-21.356 62.64-33.686 99.016-45.698 17.076-5.638 34.511-10.135 52.088-13.898 23.033-4.932 28.596-5.483 49.577-7.228 76.233-6.333 138.449 4.648 210.869 33.643 3.581 1.435 10.361 4.513 18.987 8.594 8.488 4.013 16.816 8.358 25.086 12.801 18.349 9.861 36.004 20.974 53.173 32.756 31.245 21.442 62.37 49.184 91.227 79.147 20.218 20.991 39.395 43.706 56.427 66.689 14.436 19.479 38.301 29.282 60.985 15.991 19.248-11.276 30.491-41.417 15.991-60.984-101.194-136.555-243.302-247.3-415.205-272.778-165.834-24.575-325.153 31.855-452.148 138.262-46.849 39.252-86.915 85.525-123.221 134.518-14.5 19.567-3.258 49.708 15.991 60.984 22.685 13.291 46.549 3.488 60.985-15.991z" fill="#4A5699" /><path d="M931.055 491.378c-49.817 67.228-110.761 124.856-180.173 166.811-35.332 21.354-62.639 33.684-99.015 45.694-17.076 5.641-34.512 10.137-52.09 13.902-23.032 4.931-28.593 5.48-49.576 7.225-76.233 6.336-138.449-4.648-210.869-33.642-3.582-1.436-10.362-4.514-18.987-8.595-8.488-4.015-16.816-8.357-25.087-12.801-18.348-9.862-36.003-20.974-53.172-32.755-31.245-21.443-62.37-49.184-91.227-79.149-20.218-20.99-39.395-43.705-56.427-66.69-14.436-19.479-38.3-29.279-60.985-15.991-19.249 11.276-30.491 41.419-15.991 60.984C118.65 672.929 260.76 783.677 432.661 809.15c165.834 24.578 325.152-31.854 452.148-138.259 46.85-39.256 86.915-85.528 123.222-134.521 14.5-19.564 3.257-49.708-15.991-60.984-22.685-13.287-46.55-3.487-60.985 15.992z" fill="#C45FA0" /><path d="M594.746 519.234c0.03 46.266-34.587 83.401-80.113 85.188-46.243 1.814-83.453-35.93-85.188-80.11-0.953-24.271-19.555-44.574-44.574-44.574-23.577 0-45.527 20.281-44.573 44.574 3.705 94.378 79.154 169.32 174.334 169.258 94.457-0.063 169.321-81.897 169.261-174.335-0.039-57.486-89.184-57.49-89.147-0.001z" fill="#F39A2B" /><path d="M430.688 514.818c0.876-45.416 37.262-81.797 82.677-82.672 45.438-0.875 81.824 38.571 82.673 82.672 1.105 57.413 90.256 57.521 89.147 0-1.827-94.791-77.028-169.994-171.82-171.82-94.787-1.827-170.049 79.785-171.824 171.82-1.108 57.522 88.04 57.413 89.147 0z" fill="#E5594F" />
</symbol>
<symbol id="icon-flexible" viewBox="0 0 1024 1024">
<path d="M965.282 186.746H62.449c-25.477 0-46.129 21.177-46.129 47.298v7.139c0 26.121 20.652 47.296 46.129 47.296h902.833c25.48 0 46.131-21.175 46.131-47.296v-7.139c0-26.121-20.65-47.298-46.131-47.298z" fill="#4A5699" /><path d="M965.282 821.697H62.449c-25.477 0-46.129 21.173-46.129 47.296v7.141c0 26.119 20.652 47.297 46.129 47.297h902.833c25.48 0 46.131-21.178 46.131-47.297v-7.141c0-26.123-20.65-47.296-46.131-47.296z" fill="#C45FA0" /><path d="M69.412 186.746H62.33c-26.121 0-47.294 21.177-47.294 47.298v642.09c0 26.119 21.173 47.297 47.294 47.297h7.082c26.121 0 47.294-21.178 47.294-47.297v-642.09c0.001-26.121-21.173-47.298-47.294-47.298zM964.117 186.746h-7.082c-26.119 0-47.296 21.177-47.296 47.298v642.09c0 26.119 21.177 47.297 47.296 47.297h7.082c26.122 0 47.296-21.178 47.296-47.297v-642.09c0-26.121-21.174-47.298-47.296-47.298z" fill="#F39A2B" /><path d="M426.617 435.818h-7.082c-26.121 0-47.296 21.171-47.296 47.294v38.715c0 26.119 21.175 47.296 47.296 47.296h7.082c26.121 0 47.298-21.177 47.298-47.296v-38.715c0-26.122-21.177-47.294-47.298-47.294zM601.912 435.818h-7.082c-26.118 0-47.292 21.171-47.292 47.294v38.715c0 26.119 21.174 47.296 47.292 47.296h7.082c26.119 0 47.3-21.177 47.3-47.296v-38.715c0-26.122-21.181-47.294-47.3-47.294zM777.211 435.818h-7.082c-26.122 0-47.296 21.171-47.296 47.294v38.715c0 26.119 21.174 47.296 47.296 47.296h7.082c26.119 0 47.292-21.177 47.292-47.296v-38.715c0-26.122-21.173-47.294-47.292-47.294zM777.211 611.22h-7.082c-26.122 0-47.296 21.17-47.296 47.293v38.716c0 26.115 21.174 47.293 47.296 47.293h7.082c26.119 0 47.292-21.178 47.292-47.293v-38.716c0-26.123-21.173-47.293-47.292-47.293zM601.912 611.22h-7.082c-26.118 0-47.292 21.17-47.292 47.293v38.716c0 26.115 21.174 47.293 47.292 47.293h7.082c26.119 0 47.3-21.178 47.3-47.293v-38.716c0-26.123-21.181-47.293-47.3-47.293zM426.617 611.22h-7.082c-26.121 0-47.296 21.17-47.296 47.293v38.716c0 26.115 21.175 47.293 47.296 47.293h7.082c26.121 0 47.298-21.178 47.298-47.293v-38.716c0-26.123-21.177-47.293-47.298-47.293zM251.32 611.22h-7.08c-26.123 0-47.294 21.17-47.294 47.293v38.716c0 26.115 21.171 47.293 47.294 47.293h7.08c26.123 0 47.294-21.178 47.294-47.293v-38.716c0-26.123-21.171-47.293-47.294-47.293z" fill="#E5594F" /><path d="M299.245 91.914h-7.435c-26.125 0-47.296 19.988-47.296 44.649V312.24c0 24.657 21.171 44.649 47.296 44.649h7.435c26.125 0 47.296-19.992 47.296-44.649V136.563c0-24.661-21.172-44.649-47.296-44.649zM719.956 91.914h-7.438c-26.118 0-47.292 19.988-47.292 44.649V312.24c0 24.657 21.174 44.649 47.292 44.649h7.438c26.123 0 47.296-19.992 47.296-44.649V136.563c0-24.661-21.173-44.649-47.296-44.649z" fill="#6277BA" />
</symbol>
</defs>
</svg>
